#!OML:ASF F:\VICON\USERDATA\INSTALL\rory3\rory3.ASF
:FULLY-SPECIFIED
:DEGREES
2287
root 2.07717 15.6511 -3.09223 338.903 -66.8836 2.92806
lowerback 22.3119 2.10287 0.554587
upperback 12.3167 2.12761 3.12058
thorax 0.911425 0.658889 2.5752
lowerneck -19.2865 8.74025 -3.96642
upperneck 14.5308 13.1495 -1.05514
head 7.42654 5.93421 1.80323
rclavicle 4.01545e-014 3.73715e-014
rhumerus -26.8934 17.6646 -85.1678
rradius 88.158
rwrist 25.8828
rhand -24.5391 11.1187
rfingers 7.12502
rthumb 1.95671 -18.8521
lclavicle 4.01545e-014 3.73715e-014
lhumerus -23.9266 -26.7942 92.592
lradius 71.3565
lwrist 5.23538
lhand -31.8326 11.6727
lfingers 7.12502
lthumb -5.08708 41.5917
rfemur -52.0649 -15.3555 17.0738
rtibia 87.6945
rfoot 13.0207 -14.649
rtoes 13.7654
lfemur -46.3825 14.966 -16.4594
ltibia 86.3648
lfoot 15.1135 1.50236
ltoes -13.7955
2288
root 2.07582 15.655 -3.08897 338.808 -66.8247 3.00415
lowerback 22.2567 2.07989 0.648729
upperback 12.3447 2.11206 3.04007
thorax 0.976399 0.658739 2.44014
lowerneck -19.2441 8.71469 -3.89577
upperneck 14.5414 13.1027 -1.09961
head 7.43187 5.91109 1.77239
rclavicle -2.14687e-014 -5.56597e-015
rhumerus -26.848 17.6621 -85.2548
rradius 88.0758
rwrist 25.8667
rhand -24.59 10.9309
rfingers 7.12502
rthumb 1.90759 -19.0403
lclavicle -2.14687e-014 -5.56597e-015
lhumerus -23.8338 -26.7144 92.5742
lradius 71.307
lwrist 5.02642
lhand -31.561 11.5403
lfingers 7.12502
lthumb -4.82486 41.4653
rfemur -51.9185 -15.2238 16.9154
rtibia 87.2241
rfoot 12.9956 -14.7373
rtoes 13.5607
lfemur -46.2275 14.417 -16.2683
ltibia 85.9132
lfoot 15.1256 2.20324
ltoes -11.8713
2289
root 2.07708 15.6606 -3.08171 338.385 -66.7826 3.46018
lowerback 22.2146 2.07587 0.610482
upperback 12.3364 2.10072 2.94208
thorax 0.989868 0.656265 2.35968
lowerneck -19.1876 8.71198 -3.94102
upperneck 14.616 13.1073 -1.07235
head 7.44209 5.91123 1.78789
rclavicle -1.47101e-014 -7.95139e-016
rhumerus -26.8767 17.7523 -85.3067
rradius 88.0075
rwrist 25.8149
rhand -24.6974 10.6856
rfingers 7.12502
rthumb 1.80385 -19.2865
lclavicle -1.47101e-014 -7.95139e-016
lhumerus -23.8508 -26.7326 92.5899
lradius 71.3118
lwrist 4.9568
lhand -31.4506 11.1615
lfingers 7.12502
lthumb -4.7182 41.0889
rfemur -51.8107 -15.1664 16.6135
rtibia 86.7535
rfoot 12.9891 -14.8548
rtoes 13.6072
lfemur -46.0526 13.8071 -16.3047
ltibia 85.4314
lfoot 15.1337 2.63192
ltoes -11.4551
2290
root 2.07455 15.6633 -3.07654 337.971 -66.7427 3.88166
lowerback 22.2221 2.0904 0.478987
upperback 12.3165 2.09783 2.88658
thorax 0.960962 0.651543 2.37482
lowerneck -19.149 8.70987 -4.07016
upperneck 14.7078 13.1221 -0.967006
head 7.44932 5.91894 1.84247
rclavicle 6.55989e-014 -2.3059e-014
rhumerus -26.905 17.8368 -85.3392
rradius 87.9491
rwrist 25.7646
rhand -24.7887 10.549
rfingers 7.12502
rthumb 1.71563 -19.4238
lclavicle 6.55989e-014 -2.3059e-014
lhumerus -23.9348 -26.7709 92.6485
lradius 71.3778
lwrist 4.90003
lhand -31.4063 11.2237
lfingers 7.12502
lthumb -4.6755 41.1521
rfemur -51.6764 -15.0932 16.3147
rtibia 86.2939
rfoot 12.821 -15.0369
rtoes 13.9687
lfemur -45.8609 13.4178 -16.3948
ltibia 84.9744
lfoot 15.2841 2.42884
ltoes -13.0435
2291
root 2.069 15.6631 -3.07294 337.73 -66.7122 4.07772
lowerback 22.2247 2.09176 0.424542
upperback 12.3398 2.0869 2.84561
thorax 0.985224 0.644024 2.36439
lowerneck -19.0797 8.69096 -4.20498
upperneck 14.6784 13.111 -0.883035
head 7.41299 5.91753 1.88218
rclavicle 3.18055e-015 -1.11319e-014
rhumerus -26.8315 17.8365 -85.3608
rradius 87.8806
rwrist 25.7434
rhand -24.7126 10.6824
rfingers 7.12502
rthumb 1.78911 -19.2899
lclavicle 3.18055e-015 -1.11319e-014
lhumerus -23.9063 -26.7337 92.6861
lradius 71.3864
lwrist 4.79355
lhand -31.4631 11.5496
lfingers 7.12502
lthumb -4.73031 41.4768
rfemur -51.4999 -14.9629 16.1024
rtibia 85.8565
rfoot 12.7538 -15.1263
rtoes 14.2524
lfemur -45.6743 13.2186 -16.3848
ltibia 84.567
lfoot 15.4715 2.0215
ltoes -14.6967
2292
root 2.06356 15.6613 -3.07417 337.941 -66.7006 3.83411
lowerback 22.1966 2.06265 0.494923
upperback 12.3163 2.06485 2.85481
thorax 0.976072 0.637295 2.33905
lowerneck -18.9015 8.69836 -4.26626
upperneck 14.6382 13.1206 -0.858435
head 7.3638 5.92586 1.88906
rclavicle 4.13472e-014 3.18055e-015
rhumerus -26.8639 17.858 -85.4284
rradius 87.8124
rwrist 25.838
rhand -24.6922 10.7229
rfingers 7.12502
rthumb 1.80888 -19.2491
lclavicle 4.13472e-014 3.18055e-015
lhumerus -23.9255 -26.704 92.7182
lradius 71.3553
lwrist 4.7766
lhand -31.7082 11.7087
lfingers 7.12502
lthumb -4.96702 41.6305
rfemur -51.3914 -14.8043 16.1104
rtibia 85.4317
rfoot 12.7479 -15.1567
rtoes 14.0367
lfemur -45.6508 13.1986 -16.1683
ltibia 84.2099
lfoot 15.5491 1.88927
ltoes -14.789
2293
root 2.0554 15.6552 -3.07708 338.376 -66.6834 3.35425
lowerback 22.1622 2.03412 0.657385
upperback 12.2934 2.06074 2.87774
thorax 0.973275 0.643813 2.27265
lowerneck -18.8318 8.69121 -4.24074
upperneck 14.7311 13.1019 -0.839899
head 7.38346 5.91718 1.88924
rclavicle 3.57812e-014 2.06736e-014
rhumerus -26.9287 17.871 -85.5185
rradius 87.7407
rwrist 25.8937
rhand -24.6707 10.6402
rfingers 7.12502
rthumb 1.82958 -19.3317
lclavicle 3.57812e-014 2.06736e-014
lhumerus -23.9039 -26.7197 92.6924
lradius 71.2949
lwrist 4.75503
lhand -31.7682 11.7573
lfingers 7.12502
lthumb -5.02493 41.6777
rfemur -51.3034 -14.7079 16.2318
rtibia 85.0171
rfoot 12.6093 -15.279
rtoes 13.7503
lfemur -45.6895 13.3225 -15.8543
ltibia 83.8825
lfoot 15.6024 1.80879
ltoes -13.8038
2294
root 2.0478 15.6503 -3.0786 338.425 -66.6867 3.2453
lowerback 22.1644 2.05791 0.702086
upperback 12.3196 2.09727 2.86499
thorax 1.00197 0.664085 2.22647
lowerneck -18.9324 8.67087 -4.21218
upperneck 14.906 13.0824 -0.842691
head 7.46084 5.89961 1.89404
rclavicle 1.19271e-014 -3.97569e-015
rhumerus -26.9187 17.8439 -85.5538
rradius 87.6591
rwrist 25.9755
rhand -24.6216 10.725
rfingers 7.12502
rthumb 1.87699 -19.2465
lclavicle 1.19271e-014 -3.97569e-015
lhumerus -23.7963 -26.8205 92.6278
lradius 71.2232
lwrist 4.76369
lhand -31.8416 11.7336
lfingers 7.12502
lthumb -5.09577 41.6523
rfemur -51.1548 -14.5762 16.1957
rtibia 84.59
rfoot 12.4711 -15.4503
rtoes 13.3549
lfemur -45.6061 13.3459 -15.6798
ltibia 83.5365
lfoot 15.6553 1.79376
ltoes -13.0882
2295
root 2.04445 15.6498 -3.07893 338.248 -66.6677 3.40471
lowerback 22.1945 2.06634 0.624539
upperback 12.275 2.09916 2.84184
thorax 0.935552 0.663827 2.24391
lowerneck -18.784 8.6766 -4.24337
upperneck 14.961 13.0938 -0.846104
head 7.45222 5.90267 1.89324
rclavicle -5.96354e-015 -2.46493e-014
rhumerus -27.03 17.8941 -85.6078
rradius 87.5673
rwrist 26.1331
rhand -24.7089 10.7649
rfingers 7.12502
rthumb 1.79269 -19.2073
lclavicle -5.96354e-015 -2.46493e-014
lhumerus -23.9102 -26.8317 92.6896
lradius 71.2139
lwrist 4.85538
lhand -32.0054 11.7186
lfingers 7.12502
lthumb -5.25396 41.6334
rfemur -51.0214 -14.4389 16.017
rtibia 84.1626
rfoot 12.232 -15.815
rtoes 13.6987
lfemur -45.4891 13.1571 -15.6435
ltibia 83.1344
lfoot 15.71 1.97927
ltoes -12.5949
2296
root 2.04261 15.6502 -3.07842 338.181 -66.6427 3.48116
lowerback 22.212 2.03699 0.576498
upperback 12.1998 2.06035 2.82789
thorax 0.843757 0.64542 2.26272
lowerneck -18.5546 8.67155 -4.41592
upperneck 14.914 13.0954 -0.734959
head 7.37835 5.91119 1.93931
rclavicle -6.87795e-014 -3.26007e-014
rhumerus -27.1641 18.0727 -85.6727
rradius 87.481
rwrist 26.128
rhand -24.7754 10.8139
rfingers 7.12502
rthumb 1.72852 -19.1588
lclavicle -6.87795e-014 -3.26007e-014
lhumerus -24.0499 -26.6675 92.774
lradius 71.1785
lwrist 4.8186
lhand -31.9229 11.8139
lfingers 7.12502
lthumb -5.17428 41.7307
rfemur -50.9425 -14.3867 15.878
rtibia 83.7278
rfoot 11.9419 -16.1783
rtoes 15.0603
lfemur -45.4299 12.9227 -15.5865
ltibia 82.7246
lfoot 15.7068 2.19897
ltoes -12.3882
